<svg width="600" height="600" viewBox="0 0 600 600" fill="none" xmlns="http://www.w3.org/2000/svg">
<g opacity="0.1">
<path d="M228.082 110.023C228.082 110.023 234.352 95.3931 247.113 90.9571C259.874 86.5211 267.062 96.2251 265.176 108.311C263.291 120.396 248.819 125.845 238.156 122.253C227.493 118.662 228.082 110.023 228.082 110.023Z" fill="#6F4E37"/>
<path d="M439.062 205.787C439.062 205.787 430.283 200.771 426.044 207.311C421.805 213.851 427.35 222.094 433.911 223.111C440.472 224.128 444.939 216.711 443.982 210.749C443.024 204.787 439.062 205.787 439.062 205.787Z" fill="#6F4E37"/>
<path d="M369.324 53.535C369.324 53.535 362.593 42.103 372.453 38.625C382.312 35.147 388.002 45.451 385.293 54.851C382.584 64.251 371.324 64.915 365.633 60.115C359.943 55.315 369.324 53.535 369.324 53.535Z" fill="#6F4E37"/>
<path d="M510.531 319.5C510.531 319.5 522.68 310.875 526.438 322.031C530.197 333.188 520.469 342.125 513.844 341.344C507.219 340.562 503.25 328.719 505.375 322.812C507.5 316.906 510.531 319.5 510.531 319.5Z" fill="#6F4E37"/>
<path d="M127.375 289.812C127.375 289.812 138.812 284.188 144.969 292.812C151.125 301.438 143.281 311.125 135.938 310.938C128.594 310.75 121.844 297.844 124.156 291.562C126.469 285.281 127.375 289.812 127.375 289.812Z" fill="#6F4E37"/>
<path d="M153.375 487.812C153.375 487.812 164.812 482.188 170.969 490.812C177.125 499.438 169.281 509.125 161.938 508.938C154.594 508.75 147.844 495.844 150.156 489.562C152.469 483.281 153.375 487.812 153.375 487.812Z" fill="#6F4E37"/>
<path d="M49.375 391.812C49.375 391.812 60.8125 386.188 66.9688 394.812C73.125 403.438 65.2812 413.125 57.9375 412.938C50.5938 412.75 43.8438 399.844 46.1562 393.562C48.4688 387.281 49.375 391.812 49.375 391.812Z" fill="#6F4E37"/>
</g>
</svg>
